<?xml version="1.0" encoding="UTF-8"?>
<!-- Generated by Pixelmator Pro 3.7.1 -->
<svg width="1200" height="1167" viewBox="0 0 1200 1167" xmlns="http://www.w3.org/2000/svg">
    <path id="Path-copy-5" fill="#007a54" stroke="none" d="M 905.760254 1073.161011 C 902.660645 1100.803833 879.692993 1130.76709 855.644165 1143.66272 C 828.33606 1158.305054 768.913208 1169.145996 738.389526 1165.992432 C 724.481689 1164.556152 729.248535 1156.435425 728.209839 1146.356445 C 717.699585 1044.412476 687.312256 905.805664 600.708496 841.527588 C 587.442505 831.681519 554.19458 818.092041 553.294312 800.789673 C 551.523315 766.787964 606.483398 782.507568 624.567139 789.209229 C 680.711304 810.015137 722.038208 857.241089 774.271118 886.163574 C 857.671509 932.344849 986.65625 946.959717 1049.168457 860.134155 C 1053.148926 854.606323 1062.449707 840.520508 1064.307129 834.608154 C 1064.524902 833.914429 1064.678467 832.396729 1063.656006 832.608276 C 1041.302002 851.626831 1010.235107 862.025146 981.034912 863.829834 C 822.940552 873.599487 639.669189 770.858032 592.678223 614.407593 C 589.75061 612.131958 570.337402 647.373657 566.916382 648.933105 C 558.665405 652.694946 550.2771 643.618042 548.554932 636.181885 C 540.607178 601.866943 571.432983 561.450439 603.185425 551.032715 C 618.601929 545.974487 658.426392 542.185181 663.880859 562.859375 C 669.457397 583.996826 645.455322 581.526978 632.653198 583.240967 C 630.751953 583.495361 630.322754 582.446533 630.666504 585.217529 C 631.467163 591.672974 642.914307 613.998657 646.672974 620.734863 C 704.954468 725.173218 859.136353 768.452148 966.309082 718.998413 C 1002.748047 702.184326 1033.880127 672.957642 1042.233643 632.300049 C 1044.129883 623.073608 1045.617188 618.688232 1036.802734 612.789185 C 1020.348633 601.778442 996.125732 595.49585 977.704346 583.796387 C 912.383545 542.313354 905.669678 463.321655 990.862549 442.683105 C 1015.658936 436.67627 1039.737305 438.311523 1065.060791 438.162964 L 1107.687744 445.68042 C 1080.390869 423.109619 1044.998535 415.342041 1012.869629 402.262207 C 953.217041 377.978271 908.846436 349.096924 892.605957 282.643799 C 885.141479 252.098389 879.930054 196.29834 929.172119 213.551025 C 948.369873 220.2771 961.424316 235.374756 972.38208 251.657227 C 973.317871 253.04834 975.098145 255.891113 974.854004 251.903076 C 945.942627 160.553223 867.177734 90.216309 776.359497 62.784668 C 648.928223 24.293213 487.037598 55.053955 386.675415 143.43042 C 374.471436 154.177002 363.697754 168.601318 349.653564 176.882568 C 332.765137 186.841553 314.721069 186.927979 296.392212 191.384521 C 183.195435 218.908936 179.029785 301.487549 114.249146 377.873535 C 104.359375 389.535645 92.342529 402.126709 81.118164 412.505371 C 55.453979 436.236328 33.853638 440.31958 46.477661 482.310669 C 60.848389 530.114502 154.462158 582.267456 193.533813 617.150146 C 224.300537 644.61792 275.881348 712.245972 317.059814 715.875488 C 368.058716 720.369751 388.863525 655.128174 393.455444 615.066772 C 405.954468 506.033569 325.678955 364.44165 412.480103 269.525391 C 419.108521 262.278076 448.456299 238.012939 446.03418 262.323242 C 444.628296 276.433594 433.606445 299.503418 430.463135 315.968506 C 419.09729 375.505859 443.436157 432.645386 456.508789 489.701538 C 473.520386 563.951904 478.33606 653.04895 436.047852 720.000488 C 400.497925 776.281982 326.89563 815.166504 260.672485 791.942627 C 255.082642 817.001587 247.900879 841.804199 244.585571 867.354614 C 239.483032 906.668335 241.170654 936.566406 255.932007 973.52832 C 261.176025 986.660034 279.62085 1012.022095 267.327271 1024.267822 C 251.856934 1039.678223 218.743286 1013.484985 206.425415 1002.706177 C 173.279297 973.702271 152.086792 934.28772 150.871216 889.529663 C 130.735718 897.647339 109.558594 908.266479 87.699829 911.048584 C 77.004395 912.409668 49.597656 914.576416 52.203857 897.326904 C 54.035889 885.204346 80.370483 870.134766 89.910278 861.758667 C 143.988525 814.282471 174.452148 738.626343 182.090698 668.010742 C 181.628906 664.475708 157.408081 643.90686 152.877197 640.188843 C 94.158325 591.998535 -4.975952 545.632202 0.378906 456.45166 C 3.144775 410.39917 34.047852 399.645264 61.466919 371.169678 C 69.693481 362.625244 79.095947 351.308838 86.387573 341.880615 C 142.745361 269.012207 153.539429 197.710449 249.830566 159.731201 C 273.103271 150.552002 295.151245 148.149414 318.42395 141.586426 C 333.788452 137.25415 335.142456 130.320068 346.017944 120.391113 C 487.656128 -8.928223 736.884033 -43.720703 896.15625 73.093506 C 907.846436 81.667725 925.408447 101.018555 935.676514 106.757324 C 940.362061 109.376221 950.977051 110.634033 956.944336 112.594727 C 1036.860596 138.852051 1087.00293 188.448242 1105.414307 271.77002 C 1112.907471 305.682617 1119.632324 397.151367 1139.509521 420.635742 C 1145.099365 427.240723 1155.683838 432.162231 1162.546143 438.256104 C 1183.060059 456.472046 1196.408447 484.203369 1194.410645 512.059204 C 1193.904053 519.115967 1190.352783 528.533203 1190.383301 535.12085 C 1190.433105 545.662109 1196.309814 562.276489 1197.128662 574.437744 C 1200.001465 617.110474 1190.525879 653.473145 1165.719971 688.015015 C 1150.416504 709.326416 1129.87915 729.761963 1103.631104 736.395508 C 1139.147461 794.516235 1098.978027 879.790527 1052.144775 920.031982 C 1020.641602 947.101074 982.773193 957.520752 942.528809 964.243774 C 942.003906 992.457275 949.891602 1023.75 968.764648 1045.394165 C 973.287354 1050.581055 991.765869 1064.506226 992.217529 1069.305664 C 992.994629 1077.560669 976.611816 1082.705933 970.124756 1083.310181 C 944.147217 1085.729248 922.682129 1069.684082 905.760254 1052.154785 C 905.223145 1058.89209 906.500732 1066.562134 905.760254 1073.161011 Z M 981.648193 356.897217 C 984.11499 334.762207 973.084961 310.159424 950.851807 303.001709 C 943.515381 300.639648 929.572998 299.107666 932.10498 310.852295 C 935.048828 324.51001 967.988525 351.871582 981.648193 356.897217 Z M 1049.146973 475.217407 C 1035.104736 476.318604 999.580322 482.05542 997.869385 499.874146 C 997.338379 505.403931 998.268066 509.796875 1004.314697 511.120361 C 1012.323486 512.873535 1033.923828 503.277832 1043.950928 501.192505 C 1060.166992 497.819702 1079.605469 496.708374 1096.161377 497.865479 C 1103.325928 498.365967 1121.15332 503.628296 1126.078857 500.63855 C 1134.008301 495.824951 1127.128662 484.805054 1121.181641 480.976563 C 1108.43457 472.768921 1065.069092 473.968262 1049.146973 475.217407 Z M 1155.123291 561.549072 C 1151.970947 560.715942 1152.856934 562.296753 1152.021729 563.270264 C 1144.165527 572.425537 1138.713135 582.283813 1129.39917 590.706665 C 1120.157227 599.063354 1108.779297 603.879028 1099.681152 611.133057 C 1086.983643 621.256714 1086.043701 640.74939 1079.470215 655.974609 C 1074.108398 668.394165 1065.81665 679.266602 1060.226807 690.969116 C 1059.633789 692.211182 1057.936035 691.955811 1060.240234 693.705444 C 1090.670166 702.435547 1113.309082 687.182861 1130.484375 663.621216 C 1151.833496 634.33252 1162.701904 597.598511 1155.123291 561.549072 Z M 819.034302 781.075317 C 829.767334 788.108521 839.172852 797.713501 850.300537 804.713135 C 895.068848 832.872803 998.665771 846.756226 1041.931641 812.239868 C 1067.104492 792.157227 1066.259277 763.183838 1029.821289 760.729248 C 1013.608154 759.637695 1019.789063 763.315063 1011.387695 770.853882 C 983.955322 795.470459 900.872314 792.453247 866.005859 787.652832 C 850.538574 785.522705 834.699951 782.713013 819.677124 778.413086 L 819.034302 781.075317 Z"/>
    <path id="Path-copy-4" fill="#007a54" stroke="none" d="M 565.596924 293.199951 C 561.189209 288.239258 578.464233 262.63208 582.102905 257.542725 C 604.651367 226.013428 645.195923 188.871094 687.62146 200.312012 C 703.409302 204.569336 720.639526 220.876709 718.770752 238.331787 C 717.195068 253.053955 698.987305 245.9104 689.652954 245.715576 C 648.232422 244.850342 627.113281 253.428467 593.062744 275.279053 C 589.925537 277.292725 567.466675 295.304199 565.596924 293.199951 Z"/>
    <path id="Path-copy-3" fill="#007a54" stroke="none" d="M 335.180054 974.902588 C 352.547607 1029.183228 394.148193 1072.529297 441.84314 1102.038818 C 451.741943 1108.163696 467.292725 1114.187866 475.786743 1120.880371 C 476.884399 1121.746094 478.269897 1120.848877 477.498779 1123.969727 C 427.122437 1129.888184 371.217285 1105.862671 345.804321 1061.196167 C 332.897339 1038.510376 325.002441 1002.253418 332.439575 976.876099 C 333.021484 974.889404 331.69397 974.526245 335.180054 974.902588 Z"/>
    <path id="Path-copy-2" fill="#007a54" stroke="none" d="M 665.595947 309.874756 C 693.779907 307.220215 719.609985 326.60498 729.252563 352.484863 C 731.588135 358.752686 734.64502 364.954834 729.001343 370.549805 C 721.865234 375.642578 706.090698 363.295654 698.380981 360.31665 C 678.822266 352.759033 660.361206 354.266602 640.785156 360.947998 C 631.881104 363.987061 605.551636 380.481689 598.755371 374.53833 C 592.122803 368.738037 609.967529 345.276611 614.418945 340.003174 C 627.011597 325.085693 645.60083 311.758545 665.595947 309.874756 Z"/>
    <path id="Path-copy" fill="none" stroke="none" d="M 665.595947 309.874756 C 693.779907 307.220215 719.609985 326.60498 729.252563 352.484863 C 731.588135 358.752686 734.64502 364.954834 729.001343 370.549805 C 721.865234 375.642578 706.090698 363.295654 698.380981 360.31665 C 678.822266 352.759033 660.361206 354.266602 640.785156 360.947998 C 631.881104 363.987061 605.551636 380.481689 598.755371 374.53833 C 592.122803 368.738037 609.967529 345.276611 614.418945 340.003174 C 627.011597 325.085693 645.60083 311.758545 665.595947 309.874756 Z"/>
</svg>
