<svg xmlns="http://www.w3.org/2000/svg" viewBox="0 0 1000 220" width="1000" height="220">
  <defs>
    <style>
      @import url('https://fonts.googleapis.com/css2?family=Fraunces:wght@700&amp;display=swap');
      .word { font-family: 'Fraunces', Georgia, serif; font-weight: 700; font-size: 150px; letter-spacing: -6px; fill: #FFFFFF; }
      .accent { fill: #007A54; }
    </style>
  </defs>

  <!-- Dog mark -->
  <g transform="translate(10, 10) scale(0.17)">
    <g fill="#007A54">
      <path d="M 905.76 1073.16 C 902.66 1100.80 879.69 1130.77 855.64 1143.66 C 828.34 1158.31 768.91 1169.15 738.39 1165.99 C 724.48 1164.56 729.25 1156.44 728.21 1146.36 C 717.70 1044.41 687.31 905.81 600.71 841.53 C 587.44 831.68 554.19 818.09 553.29 800.79 C 551.52 766.79 606.48 782.51 624.57 789.21 C 680.71 810.02 722.04 857.24 774.27 886.16 C 857.67 932.34 986.66 946.96 1049.17 860.13 C 1053.15 854.61 1062.45 840.52 1064.31 834.61 C 1064.52 833.91 1064.68 832.40 1063.66 832.61 C 1041.30 851.63 1010.24 862.03 981.03 863.83 C 822.94 873.60 639.67 770.86 592.68 614.41 C 589.75 612.13 570.34 647.37 566.92 648.93 C 558.67 652.69 550.28 643.62 548.55 636.18 C 540.61 601.87 571.43 561.45 603.19 551.03 C 618.60 545.97 658.43 542.19 663.88 562.86 C 669.46 583.99 645.46 581.53 632.65 583.24 C 630.75 583.49 630.32 582.45 630.67 585.22 C 631.47 591.67 642.91 614.00 646.67 620.73 C 704.95 725.17 859.14 768.45 966.31 719.00 C 1002.75 702.18 1033.88 672.96 1042.23 632.30 C 1044.13 623.07 1045.62 618.69 1036.80 612.79 C 1020.35 601.78 996.13 595.50 977.70 583.80 C 912.38 542.31 905.67 463.32 990.86 442.68 C 1015.66 436.68 1039.74 438.31 1065.06 438.16 L 1107.69 445.68 C 1080.39 423.11 1045.00 415.34 1012.87 402.26 C 953.22 377.98 908.85 349.10 892.61 282.64 C 885.14 252.10 879.93 196.30 929.17 213.55 C 948.37 220.28 961.42 235.37 972.38 251.66 C 973.32 253.05 975.10 255.89 974.85 251.90 C 945.94 160.55 867.18 90.22 776.36 62.78 C 648.93 24.29 487.04 55.05 386.68 143.43 C 374.47 154.18 363.70 168.60 349.65 176.88 C 332.77 186.84 314.72 186.93 296.39 191.38 C 183.20 218.91 179.03 301.49 114.25 377.87 C 104.36 389.54 92.34 402.13 81.12 412.51 C 55.45 436.24 33.85 440.32 46.48 482.31 C 60.85 530.11 154.46 582.27 193.53 617.15 C 224.30 644.62 275.88 712.25 317.06 715.88 C 368.06 720.37 388.86 655.13 393.46 615.07 C 405.95 506.03 325.68 364.44 412.48 269.53 C 419.11 262.28 448.46 238.01 446.03 262.32 C 444.63 276.43 433.61 299.50 430.46 315.97 C 419.10 375.51 443.44 432.65 456.51 489.70 C 473.52 563.95 478.34 653.05 436.05 720.00 C 400.50 776.28 326.90 815.17 260.67 791.94 C 255.08 817.00 247.90 841.80 244.59 867.35 C 239.48 906.67 241.17 936.57 255.93 973.53 C 261.18 986.66 279.62 1012.02 267.33 1024.27 C 251.86 1039.68 218.74 1013.48 206.43 1002.71 C 173.28 973.70 152.09 934.29 150.87 889.53 C 130.74 897.65 109.56 908.27 87.70 911.05 C 77.00 912.41 49.60 914.58 52.20 897.33 C 54.04 885.20 80.37 870.13 89.91 861.76 C 143.99 814.28 174.45 738.63 182.09 668.01 C 181.63 664.48 157.41 643.91 152.88 640.19 C 94.16 592.00 -4.98 545.63 0.38 456.45 C 3.14 410.40 34.05 399.65 61.47 371.17 C 69.69 362.63 79.10 351.31 86.39 341.88 C 142.75 269.01 153.54 197.71 249.83 159.73 C 273.10 150.55 295.15 148.15 318.42 141.59 C 333.79 137.25 335.14 130.32 346.02 120.39 C 487.66 -8.93 736.88 -43.72 896.16 73.09 C 907.85 81.67 925.41 101.02 935.68 106.76 C 940.36 109.38 950.98 110.63 956.94 112.59 C 1036.86 138.85 1087.00 188.45 1105.41 271.77 C 1112.91 305.68 1119.63 397.15 1139.51 420.64 C 1145.10 427.24 1155.68 432.16 1162.55 438.26 C 1183.06 456.47 1196.41 484.20 1194.41 512.06 C 1193.90 519.12 1190.35 528.53 1190.38 535.12 C 1190.43 545.66 1196.31 562.28 1197.13 574.44 C 1200.00 617.11 1190.53 653.47 1165.72 688.02 C 1150.42 709.33 1129.88 729.76 1103.63 736.40 C 1139.15 794.52 1098.98 879.79 1052.14 920.03 C 1020.64 947.10 982.77 957.52 942.53 964.24 C 942.00 992.46 949.89 1023.75 968.76 1045.39 C 973.29 1050.58 991.77 1064.51 992.22 1069.31 C 992.99 1077.56 976.61 1082.71 970.12 1083.31 C 944.15 1085.73 922.68 1069.68 905.76 1052.15 C 905.22 1058.89 906.50 1066.56 905.76 1073.16 Z M 981.65 356.90 C 984.11 334.76 973.08 310.16 950.85 303.00 C 943.52 300.64 929.57 299.11 932.10 310.85 C 935.05 324.51 967.99 351.87 981.65 356.90 Z M 1049.15 475.22 C 1035.10 476.32 999.58 482.06 997.87 499.87 C 997.34 505.40 998.27 509.80 1004.31 511.12 C 1012.32 512.87 1033.92 503.28 1043.95 501.19 C 1060.17 497.82 1079.61 496.71 1096.16 497.87 C 1103.33 498.37 1121.15 503.63 1126.08 500.64 C 1134.01 495.82 1127.13 484.81 1121.18 480.98 C 1108.43 472.77 1065.07 473.97 1049.15 475.22 Z M 1155.12 561.55 C 1151.97 560.72 1152.86 562.30 1152.02 563.27 C 1144.17 572.43 1138.71 582.28 1129.40 590.71 C 1120.16 599.06 1108.78 603.88 1099.68 611.13 C 1086.98 621.26 1086.04 640.75 1079.47 655.97 C 1074.11 668.39 1065.82 679.27 1060.23 690.97 C 1059.63 692.21 1057.94 691.96 1060.24 693.71 C 1090.67 702.44 1113.31 687.18 1130.48 663.62 C 1151.83 634.33 1162.70 597.60 1155.12 561.55 Z M 819.03 781.08 C 829.77 788.11 839.17 797.71 850.30 804.71 C 895.07 832.87 998.67 846.76 1041.93 812.24 C 1067.10 792.16 1066.26 763.18 1029.82 760.73 C 1013.61 759.64 1019.79 763.32 1011.39 770.85 C 983.96 795.47 900.87 792.45 866.01 787.65 C 850.54 785.52 834.70 782.71 819.68 778.41 L 819.03 781.08 Z"/>
      <path d="M 565.60 293.20 C 561.19 288.24 578.46 262.63 582.10 257.54 C 604.65 226.01 645.20 188.87 687.62 200.31 C 703.41 204.57 720.64 220.88 718.77 238.33 C 717.20 253.05 698.99 245.91 689.65 245.72 C 648.23 244.85 627.11 253.43 593.06 275.28 C 589.93 277.29 567.47 295.30 565.60 293.20 Z"/>
      <path d="M 335.18 974.90 C 352.55 1029.18 394.15 1072.53 441.84 1102.04 C 451.74 1108.16 467.29 1114.19 475.79 1120.88 C 476.88 1121.75 478.27 1120.85 477.50 1123.97 C 427.12 1129.89 371.22 1105.86 345.80 1061.20 C 332.90 1038.51 325.00 1002.25 332.44 976.88 C 333.02 974.89 331.69 974.53 335.18 974.90 Z"/>
      <path d="M 665.60 309.87 C 693.78 307.22 719.61 326.60 729.25 352.48 C 731.59 358.75 734.65 364.95 729.00 370.55 C 721.87 375.64 706.09 363.30 698.38 360.32 C 678.82 352.76 660.36 354.27 640.79 360.95 C 631.88 363.99 605.55 380.48 598.76 374.54 C 592.12 368.74 609.97 345.28 614.42 340.00 C 627.01 325.09 645.60 311.76 665.60 309.87 Z"/>
    </g>
  </g>

  <!-- Wordmark on one line -->
  <text x="230" y="160" class="word">dough dog</text>
</svg>
